<?xml version="1.0" standalone="no"?>
<!DOCTYPE svg PUBLIC "-//W3C//DTD SVG 20010904//EN"
 "http://www.w3.org/TR/2001/REC-SVG-20010904/DTD/svg10.dtd">
<svg version="1.0" xmlns="http://www.w3.org/2000/svg"
 width="700.000000pt" height="700.000000pt" viewBox="0 0 700.000000 700.000000"
 preserveAspectRatio="xMidYMid meet">
<metadata>
Created by potrace 1.14, written by Peter Selinger 2001-2017
</metadata>
<g transform="translate(0.000000,700.000000) scale(0.100000,-0.100000)"
fill="#000000" stroke="none">
<path d="M3338 6385 c-2 -1 -39 -5 -83 -9 -160 -12 -319 -40 -498 -86 -246
-64 -520 -180 -742 -315 -97 -59 -292 -195 -327 -228 -7 -7 -40 -34 -73 -62
-447 -376 -791 -945 -930 -1540 -15 -66 -42 -212 -50 -275 -28 -227 -26 -588
5 -770 5 -30 12 -73 15 -95 4 -22 8 -47 10 -55 2 -8 7 -29 9 -46 16 -90 102
-378 141 -469 7 -16 24 -55 36 -85 191 -446 529 -870 932 -1169 396 -294 835
-471 1347 -545 227 -33 621 -26 835 14 28 6 68 13 90 16 22 3 90 19 150 34
506 130 948 380 1321 746 491 483 786 1111 852 1814 9 95 7 422 -2 514 -52
486 -209 928 -471 1321 -468 702 -1229 1174 -2047 1269 -27 4 -69 9 -95 12
-46 6 -419 14 -425 9z m572 -203 c118 -20 291 -58 369 -83 72 -22 207 -71 248
-90 24 -10 45 -19 48 -19 13 0 247 -121 319 -165 622 -378 1068 -980 1236
-1668 42 -172 60 -283 75 -467 6 -71 6 -342 0 -400 -9 -85 -25 -215 -30 -240
-3 -14 -8 -41 -11 -60 -26 -144 -90 -360 -151 -510 -189 -459 -473 -826 -903
-1163 -105 -83 -383 -242 -541 -309 -153 -66 -380 -138 -514 -163 -241 -46
-289 -50 -550 -50 -265 0 -387 12 -585 56 -653 145 -1213 513 -1615 1059 -40
54 -84 120 -140 210 -121 193 -254 530 -309 782 -36 162 -45 221 -62 402 -6
66 -5 325 1 401 21 250 97 589 170 760 7 17 23 55 35 85 32 81 135 283 183
359 251 401 582 723 972 944 115 65 151 84 265 134 164 72 406 148 569 178
100 18 114 20 216 30 44 4 82 9 85 12 2 2 115 2 250 0 182 -4 277 -10 370 -25z"/>
<path d="M3446 5928 c-75 -67 -1 -185 89 -142 18 8 37 25 42 37 26 56 -17 127
-77 127 -16 0 -40 -10 -54 -22z"/>
<path d="M2997 5892 c-53 -32 -61 -90 -18 -133 65 -65 153 -15 142 81 -6 49
-79 79 -124 52z"/>
<path d="M3909 5882 c-43 -38 -46 -83 -9 -122 69 -74 182 9 135 99 -25 50 -84
60 -126 23z"/>
<path d="M2554 5758 c-47 -22 -57 -95 -19 -133 50 -51 125 -30 144 39 19 71
-56 128 -125 94z"/>
<path d="M4362 5760 c-32 -13 -53 -66 -40 -103 13 -36 62 -67 97 -61 37 6 71
48 71 87 -1 66 -62 103 -128 77z"/>
<path d="M2126 5524 c-52 -52 -24 -131 50 -141 33 -4 46 -1 69 20 24 20 29 32
27 63 -5 78 -91 112 -146 58z"/>
<path d="M4755 5527 c-38 -32 -38 -92 0 -124 72 -63 178 17 133 100 -27 52
-88 63 -133 24z"/>
<path d="M1794 5250 c-31 -12 -51 -45 -48 -78 1 -15 2 -33 3 -39 1 -7 12 -20
25 -28 66 -43 128 -15 142 64 4 25 -26 71 -52 81 -30 12 -42 12 -70 0z"/>
<path d="M5123 5242 c-41 -33 -49 -73 -24 -121 10 -18 34 -31 70 -37 25 -5 71
26 82 53 12 33 3 76 -21 98 -26 23 -81 27 -107 7z"/>
<path d="M1618 4788 c-127 -44 -223 -142 -278 -283 -23 -57 -24 -73 -26 -328
-2 -293 3 -332 56 -436 49 -98 147 -183 251 -218 37 -12 82 -18 145 -17 83 0
97 3 165 36 127 60 221 177 252 314 8 34 13 109 13 176 -1 170 11 162 -259
166 -203 3 -214 2 -239 -18 -36 -28 -44 -71 -21 -110 23 -40 52 -46 212 -45
l133 0 -4 -70 c-11 -161 -117 -275 -261 -277 -120 -3 -238 99 -263 225 -8 43
-4 493 4 522 51 173 215 255 366 184 26 -12 62 -40 79 -61 80 -99 82 -101 122
-101 47 0 85 38 85 84 0 60 -100 178 -195 231 -91 50 -237 61 -337 26z"/>
<path d="M3553 4800 c-180 -42 -347 -253 -389 -490 -15 -83 -10 -280 10 -355
47 -184 164 -344 302 -412 64 -31 86 -37 154 -39 44 -2 94 2 112 7 98 32 182
86 196 127 21 60 -40 128 -99 112 -14 -4 -43 -19 -65 -33 -182 -120 -396 46
-441 345 -34 224 65 478 213 548 83 39 161 33 232 -18 65 -47 132 -38 157 20
18 45 5 78 -49 119 -89 67 -223 95 -333 69z"/>
<path d="M2649 4757 c-24 -18 -28 -28 -169 -402 -236 -626 -270 -718 -270
-741 0 -39 42 -77 84 -77 48 0 76 28 106 108 12 33 26 69 30 80 4 11 17 43 27
70 l19 50 221 3 220 2 22 -57 c13 -32 36 -95 53 -141 29 -80 55 -112 95 -118
32 -5 72 19 87 50 18 39 20 35 -114 386 -45 118 -87 231 -94 250 -108 300
-192 508 -213 528 -27 24 -78 29 -104 9z m90 -432 c18 -49 36 -99 41 -110 11
-26 70 -183 70 -187 0 -2 -67 -3 -150 -3 -85 0 -150 4 -150 9 0 21 145 395
150 388 4 -4 21 -47 39 -97z"/>
<path d="M4068 4763 c-9 -2 -23 -19 -32 -38 -14 -29 -16 -101 -16 -573 0 -320
4 -551 10 -566 14 -39 63 -60 106 -46 55 18 58 34 60 260 1 113 3 210 3 215 1
11 419 14 436 3 6 -4 10 -83 9 -210 -2 -243 4 -263 82 -274 33 -4 80 30 87 62
3 16 5 274 5 573 l0 545 -28 28 c-36 35 -79 37 -117 4 l-28 -24 -1 -259 -1
-258 -223 0 -224 0 -1 258 0 259 -28 24 c-26 22 -58 28 -99 17z"/>
<path d="M5312 4752 c-12 -11 -58 -117 -115 -268 -52 -137 -100 -260 -105
-274 -33 -79 -213 -560 -217 -579 -6 -33 19 -76 54 -91 26 -10 36 -9 68 6 36
18 41 26 92 162 l54 142 224 0 223 0 11 -27 c64 -174 104 -265 119 -273 47
-25 90 -17 122 24 30 36 33 24 -102 376 -26 69 -104 271 -171 450 -74 194
-133 334 -146 348 -27 27 -81 29 -111 4z m138 -534 c39 -100 70 -185 70 -188
0 -3 -69 -5 -154 -5 l-153 0 7 25 c4 14 38 103 74 199 36 96 66 177 66 180 1
16 26 -42 90 -211z"/>
<path d="M1104 3580 c-71 -29 -69 -133 3 -161 97 -37 165 109 73 156 -32 17
-45 18 -76 5z"/>
<path d="M4429 3263 c-16 -7 -34 -24 -39 -38 -15 -38 -13 -1117 1 -1148 20
-44 46 -48 303 -47 208 1 248 4 294 20 277 98 349 443 134 641 l-57 53 33 66
c83 166 13 356 -162 436 -58 26 -64 27 -269 28 -145 1 -218 -2 -238 -11z m446
-183 c74 -36 102 -118 66 -193 -35 -72 -62 -82 -237 -84 l-150 -2 1 147 c1 81
3 148 4 150 0 1 63 2 138 2 116 0 143 -3 178 -20z m56 -472 c85 -29 141 -104
141 -191 0 -64 -11 -94 -53 -141 -57 -66 -70 -69 -294 -70 l-170 -1 -1 200 c0
110 1 203 3 208 7 12 336 8 374 -5z"/>
<path d="M3360 3241 l-30 -29 0 -410 c0 -383 1 -414 20 -475 60 -192 234 -319
428 -312 82 3 128 16 197 56 91 52 159 133 199 237 20 54 21 76 24 476 3 457
3 455 -55 477 -34 13 -89 -5 -105 -34 -9 -16 -12 -131 -13 -417 -1 -423 -3
-441 -53 -510 -34 -47 -59 -67 -110 -91 -120 -53 -268 5 -329 129 l-28 57 -1
403 c-1 417 -3 441 -43 457 -47 19 -71 16 -101 -14z"/>
<path d="M2658 3232 l-32 -29 -1 -554 c0 -305 3 -567 8 -582 17 -53 38 -56
343 -55 218 0 285 3 306 14 33 17 49 66 35 107 -16 48 -45 55 -242 56 -99 0
-201 0 -227 1 l-46 0 -1 463 c0 254 0 481 0 504 -1 51 -32 90 -78 98 -26 4
-39 -1 -65 -23z"/>
<path d="M2128 3220 c-178 -55 -316 -223 -361 -440 -24 -112 -17 -273 17 -375
72 -226 241 -379 428 -390 134 -8 298 68 313 144 5 29 -18 77 -44 91 -32 16
-54 12 -125 -25 -86 -45 -148 -47 -224 -9 -193 96 -267 429 -147 664 57 111
153 180 251 180 41 0 67 -8 118 -35 82 -43 109 -44 146 -5 108 115 -167 264
-372 200z"/>
<path d="M1150 3122 c-20 -7 -44 -41 -51 -72 -11 -49 36 -100 92 -100 32 0 79
53 79 89 0 56 -66 102 -120 83z"/>
<path d="M5784 3120 c-30 -12 -54 -49 -54 -83 0 -34 48 -87 80 -87 59 0 110
63 91 113 -19 48 -73 75 -117 57z"/>
<path d="M1284 2675 c-52 -22 -70 -94 -34 -133 42 -45 109 -41 139 9 44 73
-28 157 -105 124z"/>
<path d="M5622 2657 c-52 -55 -16 -147 57 -147 78 0 119 87 66 144 -32 35 -92
36 -123 3z"/>
<path d="M1502 2265 c-68 -29 -71 -118 -5 -153 70 -38 149 31 118 104 -22 52
-63 70 -113 49z"/>
<path d="M5443 2272 c-60 -9 -83 -100 -37 -146 54 -53 143 -16 144 60 0 57
-47 95 -107 86z"/>
<path d="M1782 1900 c-66 -40 -45 -142 31 -156 92 -16 142 107 64 156 -33 20
-62 20 -95 0z"/>
<path d="M5129 1905 c-84 -45 -37 -178 57 -161 33 6 42 13 60 47 39 76 -41
153 -117 114z"/>
<path d="M2152 1613 c-35 -17 -57 -62 -48 -98 24 -96 168 -80 168 18 0 67 -62
108 -120 80z"/>
<path d="M4763 1605 c-32 -22 -43 -65 -28 -102 44 -103 193 -42 158 64 -16 48
-86 69 -130 38z"/>
<path d="M2573 1398 c-36 -9 -63 -41 -63 -75 0 -104 141 -126 169 -26 8 27 5
38 -12 64 -27 39 -52 49 -94 37z"/>
<path d="M4384 1402 c-24 -4 -61 -39 -64 -62 -5 -37 2 -61 25 -85 53 -52 144
-15 145 60 0 55 -50 96 -106 87z"/>
<path d="M2986 1248 c-61 -54 -30 -147 49 -150 52 -2 96 45 90 94 -5 41 -46
78 -85 78 -16 0 -40 -10 -54 -22z"/>
<path d="M3908 1250 c-32 -25 -41 -66 -21 -107 29 -63 122 -61 149 2 20 49 18
63 -15 96 -35 35 -77 38 -113 9z"/>
<path d="M3472 1218 c-63 -17 -78 -106 -25 -148 73 -57 172 26 129 108 -19 37
-59 52 -104 40z"/>
</g>
</svg>
